<?xml version="1.0" encoding="utf-8"?>
<!-- Generator: Adobe Illustrator 26.1.0, SVG Export Plug-In . SVG Version: 6.00 Build 0)  -->
<svg version="1.1" id="Calque_1" xmlns="http://www.w3.org/2000/svg" xmlns:xlink="http://www.w3.org/1999/xlink" x="0px" y="0px"
	 viewBox="0 0 114 114" style="enable-background:new 0 0 114 114;" xml:space="preserve">
<style type="text/css">
	.st0{fill:#EA0725;}
	.st1{fill:#FFFFFF;}
</style>
<rect width="114" height="114"/>
<g>
	<path class="st0" d="M79.1,30.8c2-0.5,3.9-1.3,5.9-1.3c1.3,0.5,1.7,2,2.3,3.2c-1.6,1.4-3.6,2.2-5.6,2.9c-0.8,0.3-1.6,0.3-2.4,0.7
		c0,0.1,0,0.3,0,0.5c-1.8,0.4-3.6,0.8-5.3,1.5c-0.3,0.1-0.5,0.4-0.8,0.6c-2.4,0.8-4.6,1.8-6.9,2.8c-0.3,0.2-0.7,0.3-1,0.5
		c0,1.3-0.1,2.6-0.1,3.9c1.1-0.3,2.3-0.5,3.4-0.8c0.6-0.1,1.1-0.5,1.7-0.6c1.3-0.3,2.7-0.5,4-0.6c0.5,0,1.1,0.1,1.4,0.5
		c0.4,0.7,0.7,1.5,0.9,2.3c0.1,0.3-0.1,0.6-0.2,0.8c-0.5,0.1-0.8,0.4-1.2,0.7c-0.5,0.5-1.2,0.6-1.8,0.9c-0.4,0.2-0.6,0.7-1,0.8
		c-1.1,0.5-2.3,0.8-3.5,1.2c-1.2,0.4-2.5,0.8-3.6,1.4c-0.4,0.2-0.7,0.5-1.2,0.7c0,0.4,0,0.9,0,1.3c0.1-0.2,0.2-0.5,0.4-0.7
		c0,0.7,0.1,1.4-0.3,2c0.2,0.4-0.2,0.8-0.2,1.3c-0.2,2.8,0,5.6-0.2,8.4c-0.1,0.7-0.5,1.2-0.5,1.9c-0.1,2.1-0.3,4.2-0.5,6.3
		c0,0.6-0.4,1-0.6,1.5c-0.2,0.7-0.6,1.5-1.4,1.8c-0.4,0.3-0.5,0.8-0.8,1.2c-0.3-0.1-0.6-0.2-0.7,0.1c-0.7-2.3-0.9-4.7-0.9-7.1
		c0.1-3.1,0.1-6.2,0.1-9.3c0-0.8,0-1.6,0.1-2.4c0-0.4,0.2-0.8,0.1-1.2c-0.1-0.3,0-0.6,0.1-0.8c-0.2-0.5-0.1-1.1,0-1.6
		c-0.8,0.3-1.4,0.9-2.3,1c-0.8,0.1-1.6,0.1-2.3-0.4c-0.9-0.7-1.6-1.6-2.1-2.5c-0.2-0.5-0.7-0.8-1-1.2c-0.3-0.5-0.6-1-0.9-1.5
		c0.5-0.2,1-0.5,1.6-0.6c0.5,0,0.9,0.2,1.4,0c1.9-0.8,3.8-1.7,5.7-2.6c0.1-1,0.3-2,0.1-3c-0.3-0.6-1-0.4-1.5-0.5
		c-1.4-0.9-2-2.6-3.3-3.6c-0.4-0.3-0.7-0.7-0.6-1.2c0.2-0.2,0.6-0.2,0.9-0.3c0.9-0.2,1.7-0.7,2.5-1c0.9-0.4,1.8-0.8,2.6-1.4
		c0-2.1-0.1-4.1-0.4-6.2c0.7-0.1,1.5-0.1,2.2,0.2c0.4,0.2,0.9-0.1,1.4,0.2c0.5,0.2,1,0.4,1.5,0.6c0.8,0.6,1.4,1.4,1.8,2.3
		C70.4,33.1,74.8,32,79.1,30.8 M60.4,55.4c-0.2,0.1-0.2,0.3,0,0.4C60.6,55.7,60.6,55.6,60.4,55.4 M59.4,63.9c-0.1,2.4,0,4.8,0.1,7.2
		c0.1,1.4-0.3,2.9,0.1,4.3c0-0.6,0.2-1.2,0.1-1.8c-0.1-0.3,0.1-0.7,0.1-1c-0.2-0.6,0.1-1.1,0.1-1.7c0-1.1,0-2.3,0-3.5
		c0-0.8-0.3-1.5-0.1-2.3C59.8,64.7,59.9,64.1,59.4,63.9z"/>
	<path class="st0" d="M26.6,35.7c4.3-0.8,8.8-1.2,13.2-1.2c2.1,0,4.2,0.3,6.2,0.9c-0.1,0.1-0.3,0.2-0.5,0.2c0.6,0.3,1.1,0.6,1.7,0.8
		c0.7,0.2,1.4,0.2,2,0.6c0.9,0.6,1.6,1.3,2.3,2.1c0.6,0.7,1.1,1.7,0.9,2.7c-0.2,0.6,0.1,1.1,0.1,1.7c0,0.9-0.5,1.7-0.8,2.5
		c-0.9,1.7-1.8,3.4-2.8,5.1c-0.3,0.5-0.7,0.9-1,1.3c-1.2,1.7-2.3,3.4-3.7,4.9c0,0.5-0.2,0.8-0.6,1.1c-0.1,0.3-0.2,0.7-0.6,0.8
		c0-0.1,0-0.4,0-0.5c-0.2,0.3-0.3,0.7-0.2,1.1c-0.2,0.2-0.4,0.3-0.7,0.4c-0.2,0.9-0.8,1.5-1.4,2.1c-0.4,0.5-1.4,0.4-1.5,1.2
		c0.2-0.2,0.5-0.5,0.8-0.7c0.1,0.4-0.2,0.8-0.5,1.1c-0.5,0.6-0.9,1.1-1.4,1.7c0,0-0.1-0.1-0.1-0.1c0.4-0.7,1-1.3,1.1-2.1
		c-0.1,0-0.3,0.1-0.4,0.2c-0.8,0.9-1.6,1.8-2.2,2.9c-1,1-1.9,2.2-2.7,3.4c-1.1,0.9-1.9,2.2-2.9,3.2c-0.4,0.3-0.5,0.9-0.9,1.2
		c-1,0.9-2,1.8-3,2.7c-0.5,0.4-0.9,0.9-1.4,1.3c-1.5,1.1-3.1,2.2-4.6,3.4c-1.2,1-2.5,1.9-3.9,2.6c-1.1,0.6-2.3,0.5-3.4,0.1
		c-0.7-0.3-1.4-0.6-1.9-1.2c0.3-1.3,1.4-2.1,2.3-3c1.3-1.3,2.9-2.3,4.2-3.6c0.2-0.2,0.7-0.2,0.6-0.6c-0.1-1.8-0.5-3.6-0.6-5.4
		c0.1-0.1,0.3-0.2,0.4-0.2c0-0.3-0.1-0.5-0.2-0.8c0.5-0.9-0.1-2,0.1-3c-0.2-1.1-0.1-2.1-0.1-3.2c-0.1-1.5-0.1-3.1,0-4.6
		c0.2-3.3,0.3-6.6,0.5-10c0-0.6,0.1-1.2-0.2-1.7c0.4-0.8,0.3-1.7,0.3-2.6c-1.7,1.2-3.7,2.2-5.5,3.3c-0.4,0.2-0.7,0.6-1.1,0.8
		c-1.1,0.1-2.3-0.4-2.9-1.3c-0.4-0.2-0.7-0.6-1.1-0.8c-0.3-0.6-1-0.9-1.4-1.4c0.3-0.2,0.7-0.4,1-0.6c3-2,6.2-3.8,9.4-5.5
		c0.6-0.3,1.3-0.5,1.8-1.1C19.1,37.5,19,37.2,19,37c0.6-0.2,1.5-0.6,2,0C22.9,36.6,24.7,36,26.6,35.7 M35.9,35.7
		c1.4,0.1,2.7,0,4.1-0.2C38.6,35.5,37.3,35.4,35.9,35.7 M31.1,39.7C31,39.8,30.9,40,30.9,40c-1,0.1-2,0.1-3,0.4
		c-0.9,0.2-2,0.4-2.7,1.1l0.5,0.1c-0.1,0.3-0.3,0.5-0.3,0.8c0,1.8-0.2,3.6-0.3,5.4c-0.4,2.6-0.5,5.2-0.7,7.8c-0.2,1.9,0,3.8-0.4,5.7
		c-0.3,1.1-0.1,2.1-0.2,3.2l-0.3,0c0-0.2,0-0.5,0-0.6c-0.2,0.8-0.3,1.7-0.2,2.5c0,1.7,0.1,3.5-0.4,5.2c0.5-0.3,0.9-0.8,1.3-1.2
		c2.1-2.3,4.3-4.5,6.3-6.9c2.9-3.5,5.8-7.1,8.6-10.8c1.2-1.6,2.5-3.2,3.5-4.9c1.6-2.3,3.2-4.7,4.2-7.3c0.2-0.6,0.5-1.2,0.4-1.9
		c-2.2-0.4-4.5-0.4-6.8-0.3C37.3,38.7,34.2,39.1,31.1,39.7 M43.7,48.5c-0.6,0.9-1.2,1.7-1.8,2.6c0.4-0.2,0.8-0.4,0.9-0.9
		c0.7-0.3,1.1-1.1,1.1-1.9c0.7-0.4,1.1-1.2,1.3-2C44.6,47,44.2,47.8,43.7,48.5 M45.8,48.1c-0.2,0-0.5,0.1-0.6,0.1
		c0.2,0.1,0.3,0.1,0.5,0.2c0.5-0.4,0.8-1,1-1.6C46.3,47.1,46.1,47.6,45.8,48.1 M19.3,54.6c0.1,0.9-0.4,1.7,0,2.5l-0.2,0
		c0.3,1-0.3,2.1,0.1,3.1c-0.3,0.7-0.2,1.6-0.2,2.4c0.1,0.1,0.2,0.4,0.2,0.5c-0.1,0-0.2,0-0.3-0.1c0.1,0.2,0.2,0.4,0.3,0.6
		c-0.2,0.2-0.3,0.6-0.3,0.9c0,1.2,0.1,2.5,0.1,3.7c0,0.4,0.3,0.5,0.6,0.7c0-0.6-0.1-1.2,0-1.8c0.1-0.5-0.2-0.9-0.2-1.3
		c0.1-0.4,0.2-0.8,0.2-1.2c0-1,0.1-1.9-0.1-2.9c0-0.2,0.1-0.4,0.1-0.6c-0.1-2.2,0.2-4.5,0.3-6.7c0-0.6-0.1-1.2-0.1-1.8
		c0.1-0.8,0.1-1.6,0-2.4C19.5,51.6,19.3,53.1,19.3,54.6 M41.4,51.9c-0.3,0.1-0.4,0.7,0.1,0.5C41.9,52.4,41.9,51.7,41.4,51.9
		 M20.6,52.3c-0.1,1.1-0.2,2.1-0.2,3.2c0.2-0.5,0.2-0.9,0.2-1.4C20.7,53.4,20.7,52.8,20.6,52.3 M40.3,53.3c0.4-0.1,0.7-0.3,0.9-0.7
		C40.8,52.7,40.4,52.9,40.3,53.3 M38.8,55c-1.4,1.9-2.8,3.7-4.4,5.4c-0.2,0.2-0.4,0.4-0.7,0.6c-0.3,0.8-0.8,1.4-1.3,2
		c-0.7,0.8-1.4,1.7-2.3,2.3c-0.9,1.4-2,2.6-3.1,3.8c-0.4,0.5-1,0.8-1.4,1.3c-0.6,0.6-1.1,1.3-1.8,1.8c-0.2,0.2-0.6,0.3-0.9,0.3
		c0.2,0.1,0.3,0.2,0.6,0.1c-0.5,0.7-1.2,1.4-1.3,2.3c0.2-0.2,0.3-0.5,0.5-0.8c0.2-0.3,0.6-0.5,1-0.6c0.5-1.1,1.4-2,2.4-2.6
		c0.2-0.7,0.7-1.2,1.2-1.7c2.9-3.1,5.6-6.3,8.2-9.6c1.1-1.6,2.2-3.3,3.7-4.5c0.2-0.3,0.4-0.7,0.6-1c0-0.1,0-0.2,0-0.2
		C39.5,54.2,39.1,54.6,38.8,55 M40.2,56.3l-0.1,0.1l0.1,0.1h0.2l0.1-0.1l-0.1-0.1H40.2 M20.3,57.5c-0.2,0.1-0.3,0.6,0,0.7
		C20.6,58.1,20.7,57.5,20.3,57.5 M37.6,62.8c0.2,0.1,0.6-0.3,0.5-0.5C37.9,62.2,37.5,62.6,37.6,62.8 M35.1,62.7
		c-0.3,0.1-0.1,0.7,0.2,0.4C35.6,62.9,35.4,62.4,35.1,62.7 M20.2,67.7c-0.1,0.2-0.2,0.6,0.1,0.7C20.7,68.4,20.6,67.5,20.2,67.7
		 M30.5,68.5c0.2,0.1,0.6-0.3,0.3-0.5C30.6,67.9,30.3,68.3,30.5,68.5 M19,69c-0.1,0.6,0,1.3-0.3,1.9c0.1,0.2,0.2,0.3,0.3,0.5
		l-0.4-0.1c0.2,0.3,0.4,0.6,0.6,0.9c-0.2-0.1-0.5-0.2-0.6-0.2c0.2,0.2,0.5,0.4,0.7,0.6c0,0.1-0.1,0.3-0.1,0.5
		c0.1-0.1,0.2-0.2,0.3-0.2c0-0.7,0.1-1.4-0.1-2c0-0.1,0-0.4,0.1-0.5c0-0.4,0.1-0.9,0-1.3C19.2,69,19.1,69,19,69 M20.3,70.7l-0.1,0.1
		l0.1,0.1h0.2l0.1-0.1l-0.1-0.1H20.3 M20.8,76.6c0.3-0.3,0.5-0.8,0.5-1.2C20.7,75.6,20.9,76.2,20.8,76.6 M18.5,77.2
		c0.2,0.5-0.3,0.5-0.6,0.7c0,0.1,0,0.3,0,0.4c-0.1,0-0.3,0.1-0.4,0.1c-0.2,0.6-0.7,0.9-1.2,1.2c-0.6,0.5-1.2,1-1.5,1.7
		c1.2-1,2.3-2,3.5-3c0.2-0.2,0.6-0.4,0.6-0.8C18.9,77.5,18.7,77.3,18.5,77.2z"/>
	<path class="st1" d="M94.3,37.3c0.6-0.7,1.3-1.4,2.2-1.5c0.8-0.1,1.7-0.1,2.5,0.2c0,0.1,0.1,0.3,0.2,0.4c0.4,0.1,0.9,0.2,1.2,0.5
		c0.3,0.2,0.5,0.5,0.8,0.7l-0.1,0.3c0.6,0.2,0.9,0.9,0.5,1.5c-0.8,0.9-1.9,1.6-2.8,2.4c-2.6,2.3-4.6,5.2-6.7,8
		c-0.3,0.4-0.6,0.8-0.7,1.3c0.3,0.5,0.8,0.7,1.2,1.1c2.1,2,4,4,6.1,6c1.5,1.5,3,3,4.7,4.3c1.1,0.8,2.3,1.5,3.3,2.4
		c-0.1,0-0.3,0-0.5,0c0.2,0.1,0.5,0.2,0.7,0.4c-0.1,0.2,0,0.6-0.3,0.6c-1.1,0.3-1.9,1.2-3.1,1.3c-0.4,0.1-0.7-0.2-1-0.3
		c-0.7-0.2-1.2-0.8-1.8-1.2c-1.2-1-2.4-2-3.6-3c-0.4-0.4-0.8-0.7-1.2-1.1c-1.5-1.5-3-3.1-4.4-4.7c-0.6-0.7-1.4-1.3-2.2-1.9
		c-2,1.9-3,4.5-4.3,6.9c-0.1,0.3-0.4,0.4-0.6,0.6l0.3,0.1c-0.8,0.7-1.1,1.7-1.8,2.4c-0.5,1.3-0.7,2.7-1.2,4
		c-0.3,0.2-0.5,0.5-0.7,0.8c-0.3,0.4-0.8,0.6-1.2,0.9c-0.2,0-0.4-0.1-0.6-0.1c-0.4,0.3-0.8,0.7-1.3,0.5c-0.6-0.1-0.7-0.8-0.7-1.3
		c0-1.2,0.1-2.4,0.5-3.5c0.6-1.2,0.6-2.6,1.2-3.8c0.6-1.8,1.3-3.6,2.1-5.3c1.2-2.3,2.6-4.6,3.9-6.9c-2.2-2.5-4.3-5.2-6.3-7.8
		c0.8,0,1.7-0.2,2.5-0.2c0.9,0.1,2,0.2,2.6,1c0.2,0.2,0.5,0.2,0.7,0.4c0.9,1,1.6,2.2,2.6,3.1c0.2-0.2,0.3-0.4,0.5-0.6
		c0.8-1.4,1.7-2.6,2.7-3.9C91.6,40.6,92.9,38.9,94.3,37.3 M91.2,44c0.5-0.2,0.8-0.7,0.9-1.3C91.7,43.1,91.4,43.5,91.2,44 M89.5,44.8
		c0.3,0.1,0.5-0.2,0.4-0.5C89.7,44.2,89.4,44.6,89.5,44.8 M90.7,44.4c0,0.2,0.1,0.4,0.1,0.6c-0.2,0-0.4,0.1-0.6,0.1
		c0.2,0,0.5,0.1,0.7,0.1c0.1-0.2,0.2-0.4,0.3-0.6C91.1,44.5,90.9,44.4,90.7,44.4 M92,45.8c-0.2,0.3-0.4,0.5-0.6,0.8
		c0,0.4-0.2,0.7-0.3,1c0.3-0.2,0.5-0.6,0.7-0.9c0.3-0.5,0.7-1,0.8-1.5C92.2,45.3,92.1,45.5,92,45.8 M89.6,45.9
		c0.2,0.1,0.4,0.2,0.5,0.5c0.2-0.3,0.3-0.6,0.5-0.9c-0.2,0.2-0.4,0.3-0.6,0.5c0-0.1,0-0.4,0-0.5C89.8,45.6,89.7,45.8,89.6,45.9
		 M90.4,47.8c0,0.1,0,0.3,0,0.4c-0.1,0.1-0.2,0.2-0.3,0.3c0.2-0.1,0.5-0.2,0.7-0.3C90.7,48,90.6,47.9,90.4,47.8 M86.1,49.9
		c-0.5,0.7-0.9,1.4-1.2,2.1c0.6-0.6,0.9-1.4,1.3-2.1C86.2,49.9,86.2,49.9,86.1,49.9 M86.7,50.4c-0.2,0.1-0.3,0.3-0.2,0.5
		c0.2,0.1,0.4,0.1,0.6,0.1C87,50.9,86.9,50.6,86.7,50.4 M87.5,52.4c0.1-0.1,0.2-0.2,0.2-0.2l0-0.1C87.4,51.8,87.2,52.4,87.5,52.4
		 M83.9,55.6c0.2-0.3,0.4-0.6,0.6-0.9c0.1,0.1,0.2,0.4,0.3,0.6c0.1-0.4,0-0.8,0-1.2c0.1-0.1,0.3-0.3,0.4-0.4c0,0.2,0,0.6,0.1,0.7
		c0.4-0.5,0.7-1.1,0.3-1.7c0.1-0.2,0.2-0.4,0.2-0.6C85,53.2,84.4,54.4,83.9,55.6 M86.1,52.4l0,0.2l0.2,0c0.1-0.1,0.2-0.2,0.3-0.3
		l0-0.1l-0.2,0C86.3,52.2,86.2,52.3,86.1,52.4 M81.4,58.6c0.4-0.3,0.7-0.8,0.8-1.3C81.7,57.6,81.6,58.1,81.4,58.6 M81.5,60
		c0.4-0.5,0.5-1.4,1.2-1.4c-0.1-0.2-0.2-0.3-0.3-0.5C82.1,58.8,81.7,59.4,81.5,60 M79.3,64.3c0.5-1,0.8-2,1-3
		C79.8,62.2,79.6,63.2,79.3,64.3 M83.9,62.3c0,0.1-0.1,0.4-0.1,0.5c-0.2,0-0.4-0.1-0.6-0.2c0.1,0.1,0.3,0.3,0.4,0.3
		c0,0.3-0.1,0.5-0.1,0.8c0.2-0.5,0.5-1,0.6-1.6L83.9,62.3 M80.2,64.4l-0.1,0.1l0.1,0.1h0.2l0.1-0.1l-0.1-0.1H80.2z"/>
</g>
</svg>
