<?xml version="1.0" encoding="utf-8"?>
<!-- Generator: Adobe Illustrator 26.1.0, SVG Export Plug-In . SVG Version: 6.00 Build 0)  -->
<svg version="1.1" id="Layer_1" xmlns="http://www.w3.org/2000/svg" xmlns:xlink="http://www.w3.org/1999/xlink" x="0px" y="0px"
	 viewBox="0 0 143.9 144" style="enable-background:new 0 0 143.9 144;" xml:space="preserve">
<style type="text/css">
	.st0{opacity:0.3;fill:url(#SVGID_1_);enable-background:new    ;}
	.st1{fill:#231F20;}
</style>
<linearGradient id="SVGID_1_" gradientUnits="userSpaceOnUse" x1="-83.0689" y1="-471.3652" x2="-89.8059" y2="-347.3273" gradientTransform="matrix(-3.464102e-07 1 -1 -3.464102e-07 -311.5195 158.9515)">
	<stop  offset="0.1783" style="stop-color:#FFFFFF;stop-opacity:0"/>
	<stop  offset="0.2655" style="stop-color:#EAEAEA;stop-opacity:0.126"/>
	<stop  offset="0.4461" style="stop-color:#B4B3B3;stop-opacity:0.3873"/>
	<stop  offset="0.7021" style="stop-color:#5F5C5C;stop-opacity:0.7577"/>
	<stop  offset="0.8697" style="stop-color:#231F20"/>
</linearGradient>
<path class="st0" d="M22.9,55.9L137,37.1c0,0-3.9,44.3-1.7,75.1L22.9,93.2c0,0-1.4-4.4-1.4-18.7C21.5,58.8,22.9,55.9,22.9,55.9z"/>
<g>
	<path class="st1" d="M5.4,75c0-2.6,0.5-5,1.5-7.3c1-2.3,2.4-4.3,4.1-6c1.7-1.7,3.8-3,6.2-4c2.4-1,4.9-1.5,7.6-1.5s5.3,0.5,7.6,1.5
		s4.4,2.3,6.2,4c1.8,1.7,3.2,3.7,4.2,6c1,2.3,1.5,4.7,1.5,7.3c0,2.6-0.5,5-1.5,7.3c-1,2.2-2.4,4.2-4.2,5.9c-1.8,1.7-3.8,3-6.2,4
		c-2.4,1-4.9,1.4-7.6,1.4s-5.3-0.5-7.6-1.4s-4.4-2.3-6.2-4c-1.7-1.7-3.1-3.7-4.1-5.9C5.9,80.1,5.4,77.6,5.4,75z"/>
</g>
</svg>
