<?xml version="1.0" encoding="utf-8"?>
<!-- Generator: Adobe Illustrator 26.1.0, SVG Export Plug-In . SVG Version: 6.00 Build 0)  -->
<svg version="1.1" id="Layer_1" xmlns="http://www.w3.org/2000/svg" xmlns:xlink="http://www.w3.org/1999/xlink" x="0px" y="0px"
	 viewBox="0 0 216 216" style="enable-background:new 0 0 216 216;" xml:space="preserve">
<style type="text/css">
	.st0{fill:#231F20;}
	.st1{fill:#FFFFFF;}
</style>
<g>
	<path class="st0" d="M70.83,151.06c9.16,0,15.68-1.13,21.95-3.14c5.27-1.76,9.66-3.89,11.79-5.27v-27.22
		c0-3.01,0.38-4.14,1.25-5.02H72.09v5.02h26.22v23.96c-1.13,0.75-2.89,2.01-7.9,3.64c-6.27,2.01-10.16,3.01-19.57,3.01
		c-22.08,0-38.89-12.67-38.89-38.14c0-24.46,15.05-38.14,36.38-38.14c8.16,0,15.56,2.63,21.2,6.27c7.4,4.77,12.3,12.04,13.8,17.44
		V82.31c-1.13-2.26-5.02-7.4-11.42-11.29c-5.52-3.39-13.55-6.27-23.59-6.27c-24.21,0-42.66,14.8-42.66,43.16
		C25.66,137.88,45.86,151.06,70.83,151.06z"/>
	<g>
		<path class="st0" d="M190.1,94.36c-0.13-0.43-0.11-0.89-0.13-1.34c0-0.06-0.02-0.3-0.04-0.6V82.35
			c-1.13-2.26-5.01-7.39-11.4-11.28c-5.51-3.38-13.54-6.27-23.56-6.27c-24.19,0-42.61,14.79-42.61,43.11
			c0,29.95,17.67,43.11,42.61,43.11c11.16,0,19.05-2.76,24.31-5.89c5.51-3.26,9.27-7.39,10.65-10.53v-10.78
			c-1.63,5.89-6.89,12.78-13.54,16.67c-5.64,3.26-12.03,5.51-21.43,5.51c-22.06,0-36.34-12.66-36.34-38.1
			c0-20.97,11.09-33.98,27.7-37.25c5.65-1,9.3,0.17,10.02,1.3c0.76,1.19,0.73,2.69,0.8,4.1c0.08,1.71,0.42,3.55,1.69,4.7
			c1.27,1.15,3.71,1.02,4.32-0.57c0.77-1.99-1.73-3.94-1.48-6.05c0.19-1.61,2.01-2.37,3.63-2.43c1.03-0.04,2.85,0.48,4.71,1.19
			c2.2,0.92,4.27,1.99,6.13,3.19c0.59,0.38,1.13,0.73,1.66,1.07c-0.02,0.01-0.03,0.01-0.05,0.03c2.37,2.38,2.27,6.38,2.27,6.38
			c0.16,0.72,0.35,1.49,0.89,1.99c0.49,0.45,1.18,0.59,1.77,0.9c0.95,0.51,1.62,1.52,1.72,2.6c0.07,0.81-0.16,1.64,0.08,2.42
			c0.23,0.78,1.29,1.37,1.84,0.78c0.66-0.71-0.29-2.01,0.29-2.79c0.19-0.26,0.49-0.33,0.8-0.31c0.74,0.34,1.18,1.01,1.45,1.73
			c0,0,0,0,0,0.01c0.45,1.23,0.41,2.62,0.46,2.79c0.11,0.36,0.3,0.69,0.35,1.06c0.05,0.41-0.07,0.82-0.01,1.22
			c0.03,0.2,0.16,0.44,0.37,0.41c0.19-0.03,0.26-0.27,0.28-0.47c0.04-0.34,0.06-0.69-0.03-1.02
			C190.23,94.71,190.16,94.54,190.1,94.36z"/>
	</g>
</g>
</svg>
